<svg width="45" height="45" viewBox="0 0 45 45" fill="none" xmlns="http://www.w3.org/2000/svg">
<path fill-rule="evenodd" clip-rule="evenodd" d="M19.5 22.5C19.5 21.6757 20.0932 21 20.8445 21C21.5958 21 22.2022 21.6757 22.1889 22.5C22.1889 23.3243 21.5958 24 20.8445 24C20.1064 24 19.5 23.3243 19.5 22.5ZM24.3111 22.5C24.3111 21.6757 24.9042 21 25.6555 21C26.4068 21 27 21.6757 27 22.5C27 23.3243 26.4068 24 25.6555 24C24.9174 24 24.3111 23.3243 24.3111 22.5Z" fill="#C4C4C4"/>
<path fill-rule="evenodd" clip-rule="evenodd" d="M13.9735 9.75H31.7765C33.2777 9.75 34.5 10.9575 34.5 12.4538V36L31.6435 33.5063L30.036 32.0362L28.3355 30.4744L29.0395 32.9025H13.9735C12.4723 32.9025 11.25 31.695 11.25 30.1988V12.4538C11.25 10.9575 12.4723 9.75 13.9735 9.75ZM25.7713 25.8281C26.1698 26.3269 26.6482 26.8912 26.6482 26.8912C29.5843 26.7994 30.7135 24.8962 30.7135 24.8962C30.7135 20.67 28.8005 17.2444 28.8005 17.2444C26.8873 15.8269 25.0672 15.8662 25.0672 15.8662L24.8812 16.0763C27.1397 16.7588 28.1893 17.7431 28.1893 17.7431C26.8075 16.995 25.4525 16.6275 24.1903 16.4831C23.2337 16.3781 22.317 16.4044 21.5065 16.5094C21.437 16.5094 21.3775 16.5194 21.3105 16.5307C21.3007 16.5323 21.2908 16.5339 21.2807 16.5356C20.8157 16.575 19.6865 16.7456 18.2648 17.3625C17.7733 17.5856 17.481 17.7431 17.481 17.7431C17.481 17.7431 18.5837 16.7062 20.9752 16.0237L20.8423 15.8662C20.8423 15.8662 19.0222 15.8269 17.109 17.2444C17.109 17.2444 15.1958 20.67 15.1958 24.8962C15.1958 24.8962 16.3118 26.7994 19.248 26.8912C19.248 26.8912 19.7395 26.3006 20.1382 25.8019C18.4508 25.3031 17.8132 24.2531 17.8132 24.2531C17.8132 24.2531 17.946 24.345 18.1852 24.4762C18.1985 24.4894 18.2117 24.5025 18.2383 24.5156C18.2582 24.5287 18.2782 24.5386 18.298 24.5484C18.318 24.5583 18.338 24.5681 18.3578 24.5812C18.69 24.765 19.0222 24.9094 19.3277 25.0275C19.8725 25.2375 20.5235 25.4475 21.2807 25.5919C22.2772 25.7756 23.4463 25.8412 24.7217 25.605C25.3462 25.5 25.9838 25.3162 26.6482 25.0406C27.1132 24.87 27.6313 24.6206 28.176 24.2663C28.176 24.2663 27.5117 25.3425 25.7713 25.8281Z" fill="#C4C4C4"/>
</svg>
