<svg width="30" height="30" viewBox="0 0 30 30" fill="none" xmlns="http://www.w3.org/2000/svg">
<g clip-path="url(#clip0_7_27)">
<path d="M23.0329 1.97707C24.5547 1.97881 26.0137 2.58413 27.0898 3.66022C28.1659 4.73632 28.7712 6.19532 28.7729 7.71715V22.2829C28.7715 23.8048 28.1663 25.264 27.0902 26.3402C26.014 27.4163 24.5548 28.0215 23.0329 28.0229H8.46715C6.94532 28.0212 5.48632 27.4159 4.41022 26.3398C3.33413 25.2637 2.72881 23.8047 2.72707 22.2829V7.71715C2.72881 6.19532 3.33413 4.73632 4.41022 3.66022C5.48632 2.58413 6.94532 1.97881 8.46715 1.97707H23.0329ZM23.0329 0H8.46715C6.42054 0.000349459 4.45786 0.813516 3.01069 2.26069C1.56352 3.70786 0.750349 5.67054 0.75 7.71715L0.75 22.2829C0.75 24.3296 1.56305 26.2925 3.0103 27.7397C4.45755 29.1869 6.42043 30 8.46715 30H23.0329C25.0796 30 27.0425 29.1869 28.4897 27.7397C29.9369 26.2925 30.75 24.3296 30.75 22.2829V7.71715C30.75 5.67043 29.9369 3.70755 28.4897 2.2603C27.0425 0.813054 25.0796 0 23.0329 0Z" fill="#C4C4C4"/>
<path d="M15.7506 10.1991C16.7003 10.1991 17.6286 10.4807 18.4182 11.0083C19.2079 11.5359 19.8233 12.2858 20.1867 13.1632C20.5502 14.0406 20.6452 15.006 20.46 15.9374C20.2747 16.8689 19.8174 17.7244 19.1459 18.396C18.4743 19.0675 17.6188 19.5248 16.6874 19.7101C15.7559 19.8953 14.7905 19.8002 13.9131 19.4368C13.0357 19.0734 12.2858 18.458 11.7582 17.6683C11.2306 16.8787 10.949 15.9504 10.949 15.0007C10.9504 13.7276 11.4567 12.5071 12.3569 11.607C13.2571 10.7068 14.4776 10.2004 15.7506 10.1991ZM15.7506 8.22198C14.4098 8.22172 13.0991 8.61907 11.9842 9.36376C10.8693 10.1085 10.0002 11.1671 9.48696 12.4057C8.97369 13.6443 8.83927 15.0073 9.10067 16.3223C9.36208 17.6374 10.0076 18.8453 10.9556 19.7935C11.9035 20.7416 13.1114 21.3874 14.4263 21.649C15.7413 21.9107 17.1044 21.7765 18.3431 21.2635C19.5818 20.7505 20.6406 19.8816 21.3855 18.7669C22.1304 17.6521 22.528 16.3414 22.528 15.0007C22.5276 13.2032 21.8135 11.4794 20.5426 10.2083C19.2717 8.93713 17.5481 8.22268 15.7506 8.22198Z" fill="#C4C4C4"/>
</g>
<defs>
<clipPath id="clip0_7_27">
<rect width="30" height="30" fill="white"/>
</clipPath>
</defs>
</svg>
