<svg width="30" height="30" viewBox="0 0 30 30" fill="none" xmlns="http://www.w3.org/2000/svg">
<path d="M14.9999 2.32623C8.01576 2.32623 2.33362 8.01165 2.33362 15C2.33362 21.9885 8.01576 27.6737 14.9999 27.6737C21.9842 27.6737 27.6665 21.9885 27.6665 15C27.6663 8.01165 21.984 2.32623 14.9999 2.32623ZM14.9999 26.4237C8.70453 26.4237 3.5829 21.2991 3.5829 15C3.5829 8.70102 8.70453 3.57623 14.9999 3.57623C21.2952 3.57623 26.4172 8.70102 26.4172 15C26.417 21.2991 21.2952 26.4237 14.9999 26.4237Z" fill="#C4C4C4"/>
<path d="M11.4978 12.3146H8.56653V19.9675H11.4978V12.3146Z" fill="#C4C4C4"/>
<path d="M10.0029 11.0938C10.8223 11.0938 11.4864 10.4875 11.4864 9.7396C11.4864 8.99172 10.8223 8.38544 10.0029 8.38544C9.1836 8.38544 8.51941 8.99172 8.51941 9.7396C8.51941 10.4875 9.1836 11.0938 10.0029 11.0938Z" fill="#C4C4C4"/>
<path d="M18.8657 12.1417C18.2655 12.1417 17.7568 12.251 17.3387 12.4696C16.921 12.6883 16.5083 13.0521 16.1 13.5612V12.3146H13.3704V19.9675H16.3016V16.2923C16.3016 15.5956 16.4122 15.1131 16.6331 14.844C16.854 14.575 17.1417 14.4404 17.4972 14.4404C17.8188 14.4404 18.0685 14.5402 18.2463 14.7396C18.4241 14.939 18.5126 15.2787 18.5126 15.7594V19.9675H21.4584V15.1035C21.4584 14.0946 21.229 13.3487 20.7703 12.8658C20.3122 12.3829 19.6769 12.1417 18.8657 12.1417Z" fill="#C4C4C4"/>
</svg>
